<?xml version="1.0" encoding="UTF-8"?>
<svg id="Capa_1" xmlns="http://www.w3.org/2000/svg" version="1.1" viewBox="0 0 220 100">
  <!-- Generator: Adobe Illustrator 30.3.0, SVG Export Plug-In . SVG Version: 2.1.1 Build 22)  -->
  <defs>
    <style>
      .st0 {
        fill: #c7aa56;
      }
    </style>
  </defs>
  <g>
    <g>
      <path class="st0" d="M166.9,81.92h5.06v17.72h-5.06v-17.72Z"/>
      <path class="st0" d="M189.18,81.92h5.07v17.72h-4.05l-5.57-8.1v8.1h-5.06v-17.72h4.05l5.57,8.1v-8.1Z"/>
      <path class="st0" d="M211.46,81.92h5.07v17.72h-4.05l-5.57-8.1v8.1h-5.06v-17.72h4.05l5.57,8.1v-8.1Z"/>
    </g>
    <path class="st0" d="M112.39,13.52h9.31v59.79h-9.31V13.52ZM202.97,47.72c-4.48-1.29-8.1-2.76-8.1-5.6,0-3.02,2.76-4.57,6.29-4.57,3.88,0,6.64,1.64,8.1,4.91l7.84-4.39c-3.02-5.6-8.79-8.96-15.94-8.96-4.48,0-8.28,1.21-11.29,3.62s-4.48,5.6-4.48,9.57c-.17,9.05,8.53,11.64,15,13.27,4.57,1.12,8.19,2.76,8.19,5.52,0,3.19-2.41,4.83-7.33,4.83s-8.1-2.07-9.57-6.2l-8.02,4.65c2.76,6.29,9.05,10.09,17.58,10.09,4.83,0,8.79-1.21,11.98-3.54,3.19-2.33,4.83-5.6,4.83-9.74.17-9.22-8.45-11.98-15.08-13.45h0ZM166.62,29.11h9.31v44.89h-9.31v-4.04c-3.82,2.83-8.52,4.53-13.63,4.53-12.65,0-22.94-10.29-22.94-22.94s10.29-22.94,22.94-22.94c5.11,0,9.82,1.7,13.63,4.53v-4.04h0ZM166.62,51.55c0-7.52-6.12-13.63-13.63-13.63s-13.63,6.12-13.63,13.63,6.12,13.63,13.63,13.63,13.63-6.12,13.63-13.63h0Z"/>
  </g>
  <path class="st0" d="M51.95,0C24.38,0,1.95,22.43,1.95,50c0,10.56,3.3,20.37,8.92,28.45.14.24.3.48.49.68,8.38,11.64,21.63,19.54,36.74,20.7.08,0,.15.02.23.02h.01c1.2.09,2.4.14,3.62.14,27.57,0,50-22.43,50-50S79.52,0,51.95,0h0ZM18.44,75.76c3.17-10.69,10.14-21.37,18.63-29.34-2.74,6.48-4.22,13.69-4.21,21.07.02,8.46,2.04,16.27,5.71,22.62-8.06-2.7-15.05-7.75-20.14-14.35h0ZM51.95,92.29c-.68,0-1.36-.02-2.04-.05-5.93-5.62-9.32-14.56-9.34-24.77,0-3.73.44-7.4,1.27-10.92,3,13.63,15.17,23.86,29.69,23.86,4.34,0,8.46-.92,12.2-2.56-7.76,8.84-19.13,14.45-31.79,14.45h0ZM71.54,72.7c-12.52,0-22.7-10.18-22.7-22.7,0-5.69,2.1-11.14,5.95-15.33,1.8-1.96.88-4.24.17-4.99-.72-.76-2.25-2.01-4.6-1.12,0,0-.01,0-.02,0-15.43,6.22-29.96,21.67-37.01,38.62-2.35-5.26-3.67-11.07-3.67-17.19C9.65,26.68,28.63,7.71,51.95,7.71s42.29,18.97,42.29,42.29c0,12.52-10.18,22.7-22.7,22.7ZM71.54,34.62c-8.48,0-15.38,6.9-15.38,15.38s6.9,15.38,15.38,15.38,15.38-6.9,15.38-15.38-6.9-15.38-15.38-15.38ZM71.54,57.67c-4.23,0-7.67-3.44-7.67-7.67s3.44-7.67,7.67-7.67,7.67,3.44,7.67,7.67-3.44,7.67-7.67,7.67Z"/>
</svg>