<?xml version="1.0" encoding="UTF-8"?>
<svg id="Capa_1" xmlns="http://www.w3.org/2000/svg" version="1.1" viewBox="0 0 800 800">
  <!-- Generator: Adobe Illustrator 30.3.0, SVG Export Plug-In . SVG Version: 2.1.1 Build 22)  -->
  <defs>
    <style>
      .st0 {
        fill: #c7aa56;
      }
    </style>
  </defs>
  <g>
    <g>
      <path class="st0" d="M566.25,493.27h14.79v51.79h-14.79v-51.79Z"/>
      <path class="st0" d="M631.35,493.27h14.8v51.79h-11.84l-16.28-23.67v23.67h-14.79v-51.79h11.84l16.27,23.67v-23.67Z"/>
      <path class="st0" d="M696.47,493.27h14.8v51.79h-11.84l-16.28-23.67v23.67h-14.79v-51.79h11.84l16.27,23.67v-23.67Z"/>
    </g>
    <path class="st0" d="M406.98,293.42h27.2v174.72h-27.2v-174.72ZM671.66,393.34c-13.1-3.78-23.67-8.06-23.67-16.37,0-8.81,8.06-13.35,18.38-13.35,11.33,0,19.39,4.79,23.67,14.36l22.92-12.84c-8.81-16.37-25.69-26.19-46.59-26.19-13.1,0-24.18,3.53-32.99,10.58-8.81,7.05-13.1,16.37-13.1,27.95-.5,26.44,24.93,34,43.82,38.78,13.35,3.27,23.93,8.06,23.93,16.12,0,9.32-7.05,14.1-21.41,14.1s-23.67-6.04-27.95-18.13l-23.42,13.6c8.06,18.38,26.44,29.47,51.38,29.47,14.1,0,25.69-3.53,35.01-10.33,9.32-6.8,14.1-16.37,14.1-28.46.5-26.95-24.68-35.01-44.07-39.29ZM565.43,338.95h27.19v131.16h-27.19v-11.81c-11.15,8.28-24.91,13.25-39.84,13.25-36.96,0-67.02-30.06-67.02-67.02s30.07-67.02,67.02-67.02c14.93,0,28.68,4.97,39.84,13.25v-11.81ZM565.43,404.52c0-21.96-17.87-39.83-39.84-39.83s-39.84,17.87-39.84,39.83,17.87,39.84,39.84,39.84,39.84-17.87,39.84-39.84Z"/>
  </g>
  <path class="st0" d="M230.36,253.9c-80.56,0-146.1,65.54-146.1,146.1,0,30.87,9.65,59.52,26.06,83.13.4.71.87,1.39,1.42,2,24.48,34.02,63.19,57.1,107.35,60.49.22.01.44.06.66.06.01,0,.02,0,.04,0,3.5.25,7.02.42,10.58.42,80.56,0,146.1-65.54,146.1-146.1s-65.54-146.1-146.1-146.1ZM132.45,475.27c9.26-31.25,29.62-62.45,54.43-85.73-8,18.94-12.33,40-12.29,61.56.05,24.72,5.96,47.53,16.69,66.11-23.56-7.88-43.97-22.65-58.84-41.94ZM230.36,523.58c-2,0-3.98-.06-5.95-.15-17.32-16.41-27.24-42.53-27.3-72.37-.02-10.91,1.29-21.63,3.72-31.92,8.78,39.83,44.34,69.72,86.76,69.72,12.68,0,24.73-2.69,35.65-7.49-22.67,25.84-55.89,42.21-92.89,42.21ZM287.6,466.34c-36.58,0-66.34-29.76-66.34-66.34,0-16.63,6.15-32.56,17.4-44.79,5.26-5.72,2.56-12.39.49-14.57-2.11-2.23-6.58-5.88-13.45-3.28-.02,0-.04.02-.06.02-45.1,18.17-87.55,63.33-108.15,112.86-6.86-15.36-10.71-32.35-10.71-50.24,0-68.14,55.44-123.58,123.58-123.58s123.58,55.44,123.58,123.58c0,36.58-29.76,66.34-66.34,66.34ZM287.6,355.06c-24.78,0-44.94,20.16-44.94,44.94s20.16,44.94,44.94,44.94,44.94-20.16,44.94-44.94-20.16-44.94-44.94-44.94ZM287.6,422.42c-12.36,0-22.42-10.06-22.42-22.42s10.06-22.42,22.42-22.42,22.42,10.06,22.42,22.42-10.06,22.42-22.42,22.42Z"/>
</svg>